<svg width="16" height="14" viewBox="0 0 16 14" fill="none" xmlns="http://www.w3.org/2000/svg">
<path d="M7.9999 13.6669C7.16657 13.6669 6.38601 13.5086 5.65824 13.1919C4.93046 12.8752 4.29712 12.4474 3.75824 11.9086C3.21935 11.3697 2.79157 10.7363 2.4749 10.0086C2.15824 9.28078 1.9999 8.50023 1.9999 7.66689C1.9999 6.83356 2.15824 6.05301 2.4749 5.32523C2.79157 4.59745 3.21935 3.96412 3.75824 3.42523C4.29712 2.88634 4.93046 2.45856 5.65824 2.14189C6.38601 1.82523 7.16657 1.66689 7.9999 1.66689C8.83324 1.66689 9.61379 1.82523 10.3416 2.14189C11.0693 2.45856 11.7027 2.88634 12.2416 3.42523C12.7805 3.96412 13.2082 4.59745 13.5249 5.32523C13.8416 6.05301 13.9999 6.83356 13.9999 7.66689C13.9999 8.50023 13.8416 9.28078 13.5249 10.0086C13.2082 10.7363 12.7805 11.3697 12.2416 11.9086C11.7027 12.4474 11.0693 12.8752 10.3416 13.1919C9.61379 13.5086 8.83324 13.6669 7.9999 13.6669ZM9.86657 10.4669L10.7999 9.53356L8.66657 7.40023V4.33356H7.33324V7.93356L9.86657 10.4669ZM3.73324 0.566895L4.66657 1.50023L1.83324 4.33356L0.899902 3.40023L3.73324 0.566895ZM12.2666 0.566895L15.0999 3.40023L14.1666 4.33356L11.3332 1.50023L12.2666 0.566895Z" fill="#757575"/>
</svg>
