<svg width="18" height="17" viewBox="0 0 18 17" fill="none" xmlns="http://www.w3.org/2000/svg">
<path d="M17.6155 16.3078L14.5385 13.2308H5.00002C4.57702 13.2308 4.21486 13.0801 3.91352 12.7788C3.61219 12.4776 3.46152 12.1154 3.46152 11.6923V11.4615H14.2308C14.6749 11.4615 15.0553 11.3033 15.3718 10.987C15.6881 10.6707 15.8463 10.2904 15.8463 9.84625V3H16.077C16.5 3 16.8622 3.15067 17.1635 3.452C17.4649 3.75317 17.6155 4.11533 17.6155 4.5385V16.3078ZM1.38452 10.1173L3.04052 8.4615H12.2308C12.4103 8.4615 12.5577 8.40383 12.673 8.2885C12.7885 8.17317 12.8463 8.02575 12.8463 7.84625V1.6155C12.8463 1.436 12.7885 1.2885 12.673 1.173C12.5577 1.05767 12.4103 1 12.2308 1H2.00002C1.82052 1 1.6731 1.05767 1.55777 1.173C1.44227 1.2885 1.38452 1.436 1.38452 1.6155V10.1173ZM0.384521 12.5385V1.6155C0.384521 1.17117 0.542771 0.790833 0.859271 0.4745C1.1756 0.158166 1.55585 0 2.00002 0H12.2308C12.6749 0 13.0553 0.158166 13.3718 0.4745C13.6881 0.790833 13.8463 1.17117 13.8463 1.6155V7.84625C13.8463 8.29042 13.6881 8.67067 13.3718 8.987C13.0553 9.30333 12.6749 9.4615 12.2308 9.4615H3.46152L0.384521 12.5385Z" fill="#757575"/>
</svg>
