<svg width="14" height="14" viewBox="0 0 14 14" fill="none" xmlns="http://www.w3.org/2000/svg">
<path d="M6.99992 13.6668C6.0777 13.6668 5.21103 13.4918 4.39992 13.1418C3.58881 12.7918 2.88325 12.3168 2.28325 11.7168C1.68325 11.1168 1.20825 10.4113 0.858252 9.60016C0.508252 8.78905 0.333252 7.92238 0.333252 7.00016C0.333252 6.07794 0.508252 5.21127 0.858252 4.40016C1.20825 3.58905 1.68325 2.8835 2.28325 2.2835C2.88325 1.6835 3.58881 1.2085 4.39992 0.858496C5.21103 0.508496 6.0777 0.333496 6.99992 0.333496C7.92214 0.333496 8.78881 0.508496 9.59992 0.858496C10.411 1.2085 11.1166 1.6835 11.7166 2.2835C12.3166 2.8835 12.7916 3.58905 13.1416 4.40016C13.4916 5.21127 13.6666 6.07794 13.6666 7.00016C13.6666 7.92238 13.4916 8.78905 13.1416 9.60016C12.7916 10.4113 12.3166 11.1168 11.7166 11.7168C11.1166 12.3168 10.411 12.7918 9.59992 13.1418C8.78881 13.4918 7.92214 13.6668 6.99992 13.6668ZM6.99992 10.6668C7.49992 10.1668 7.94436 9.65016 8.33325 9.11683C8.66658 8.66127 8.97214 8.16127 9.24992 7.61683C9.5277 7.07238 9.66658 6.5335 9.66658 6.00016C9.66658 5.26683 9.40547 4.63905 8.88325 4.11683C8.36103 3.59461 7.73325 3.3335 6.99992 3.3335C6.26658 3.3335 5.63881 3.59461 5.11659 4.11683C4.59436 4.63905 4.33325 5.26683 4.33325 6.00016C4.33325 6.5335 4.47214 7.07238 4.74992 7.61683C5.0277 8.16127 5.33325 8.66127 5.66658 9.11683C6.05547 9.65016 6.49992 10.1668 6.99992 10.6668ZM6.99992 7.00016C6.72214 7.00016 6.48603 6.90294 6.29158 6.7085C6.09714 6.51405 5.99992 6.27794 5.99992 6.00016C5.99992 5.72238 6.09714 5.48627 6.29158 5.29183C6.48603 5.09738 6.72214 5.00016 6.99992 5.00016C7.2777 5.00016 7.51381 5.09738 7.70825 5.29183C7.9027 5.48627 7.99992 5.72238 7.99992 6.00016C7.99992 6.27794 7.9027 6.51405 7.70825 6.7085C7.51381 6.90294 7.2777 7.00016 6.99992 7.00016Z" fill="#757575"/>
</svg>
