<svg width="18" height="17" viewBox="0 0 18 17" fill="none" xmlns="http://www.w3.org/2000/svg">
<path d="M12.3 7.25L15.825 3.7L15.125 3L12.3 5.825L10.875 4.4L10.175 5.125L12.3 7.25ZM0 17V15H12V17H0ZM13 10C11.6167 10 10.4375 9.5125 9.4625 8.5375C8.4875 7.5625 8 6.38333 8 5C8 3.61667 8.4875 2.4375 9.4625 1.4625C10.4375 0.4875 11.6167 0 13 0C14.3833 0 15.5625 0.4875 16.5375 1.4625C17.5125 2.4375 18 3.61667 18 5C18 6.38333 17.5125 7.5625 16.5375 8.5375C15.5625 9.5125 14.3833 10 13 10ZM0 9V7H6.3C6.41667 7.36667 6.55 7.71667 6.7 8.05C6.85 8.38333 7.03333 8.7 7.25 9H0ZM0 13V11H9.4C9.78333 11.2333 10.1917 11.4292 10.625 11.5875C11.0583 11.7458 11.5167 11.8583 12 11.925V13H0Z" fill="#0891B2"/>
</svg>
