<svg width="20" height="17" viewBox="0 0 20 17" fill="none" xmlns="http://www.w3.org/2000/svg">
<path d="M15.5 8V6.8L14.75 7.55L14.05 6.85L15.5 5.4V4.5H14.6L13.15 5.95L12.45 5.25L13.2 4.5H12V3.5H13.2L12.45 2.75L13.15 2.05L14.6 3.5H15.5V2.6L14.05 1.15L14.75 0.45L15.5 1.2V0H16.5V1.2L17.25 0.45L17.95 1.15L16.5 2.6V3.5H17.4L18.85 2.05L19.55 2.75L18.8 3.5H20V4.5H18.8L19.55 5.25L18.85 5.95L17.4 4.5H16.5V5.4L17.95 6.85L17.25 7.55L16.5 6.8V8H15.5ZM14.1 13.425L13 12.325V17H3V12.3L1.9 13.4L0.5 12L8 4.5L15.5 12L14.1 13.425ZM5 15H7V12H9V15H11V10.325L8 7.325L5 10.325V15Z" fill="#1C1B1F"/>
</svg>
