<svg width="20" height="20" viewBox="0 0 20 20" fill="none" xmlns="http://www.w3.org/2000/svg">
<path d="M9.275 13.525C10.4417 13.525 11.4333 13.15 12.25 12.4C13.0667 11.65 13.475 10.7417 13.475 9.675C13.475 8.725 13.1708 7.92083 12.5625 7.2625C11.9542 6.60417 11.2167 6.275 10.35 6.275C9.56667 6.275 8.90417 6.525 8.3625 7.025C7.82083 7.525 7.55 8.14167 7.55 8.875C7.55 9.19167 7.6125 9.5 7.7375 9.8C7.8625 10.1 8.04167 10.375 8.275 10.625L9.7 9.2C9.65 9.16667 9.6125 9.125 9.5875 9.075C9.5625 9.025 9.55 8.96667 9.55 8.9C9.55 8.71667 9.625 8.57083 9.775 8.4625C9.925 8.35417 10.1167 8.3 10.35 8.3C10.6833 8.3 10.9583 8.4375 11.175 8.7125C11.3917 8.9875 11.5 9.31667 11.5 9.7C11.5 10.2167 11.2875 10.6542 10.8625 11.0125C10.4375 11.3708 9.91667 11.55 9.3 11.55C8.51667 11.55 7.85417 11.2333 7.3125 10.6C6.77083 9.96667 6.5 9.19167 6.5 8.275C6.5 7.79167 6.59167 7.32917 6.775 6.8875C6.95833 6.44583 7.21667 6.05833 7.55 5.725L6.125 4.3C5.59167 4.81667 5.18333 5.41667 4.9 6.1C4.61667 6.78333 4.475 7.5 4.475 8.25C4.475 9.71667 4.94167 10.9625 5.875 11.9875C6.80833 13.0125 7.94167 13.525 9.275 13.525ZM3 20V15.7C2.05 14.8333 1.3125 13.8208 0.7875 12.6625C0.2625 11.5042 0 10.2833 0 9C0 6.5 0.875 4.375 2.625 2.625C4.375 0.875 6.5 0 9 0C11.0833 0 12.9292 0.6125 14.5375 1.8375C16.1458 3.0625 17.1917 4.65833 17.675 6.625L18.975 11.75C19.0583 12.0667 19 12.3542 18.8 12.6125C18.6 12.8708 18.3333 13 18 13H16V16C16 16.55 15.8042 17.0208 15.4125 17.4125C15.0208 17.8042 14.55 18 14 18H12V20H10V16H14V11H16.7L15.75 7.125C15.3667 5.60833 14.55 4.375 13.3 3.425C12.05 2.475 10.6167 2 9 2C7.06667 2 5.41667 2.675 4.05 4.025C2.68333 5.375 2 7.01667 2 8.95C2 9.95 2.20417 10.9 2.6125 11.8C3.02083 12.7 3.6 13.5 4.35 14.2L5 14.8V20H3Z" fill="#1C1B1F"/>
</svg>
