<svg width="18" height="18" viewBox="0 0 18 18" fill="none" xmlns="http://www.w3.org/2000/svg">
<path d="M4.99999 16.3846V6.60961C4.99999 6.16228 5.15832 5.7822 5.47499 5.46936C5.79166 5.15653 6.17374 5.00011 6.62124 5.00011H16.3845C16.832 5.00011 17.2132 5.15744 17.528 5.47211C17.8427 5.78694 18 6.16811 18 6.61561V13.5771L13.577 18.0001H6.61549C6.16799 18.0001 5.78682 17.8428 5.47199 17.5281C5.15732 17.2133 4.99999 16.8321 4.99999 16.3846ZM0.024989 3.59636C-0.0621777 3.14886 0.023739 2.74594 0.282739 2.38761C0.541739 2.02928 0.894906 1.80653 1.34224 1.71936L10.9615 0.0251111C11.409 -0.0620556 11.8119 0.0238611 12.1702 0.282861C12.5286 0.541861 12.7513 0.895028 12.8385 1.34236L13.05 2.61561H12.0385L11.825 1.42311C11.7993 1.28211 11.7224 1.16995 11.5942 1.08661C11.4661 1.00328 11.3251 0.974445 11.1712 1.00011L1.51924 2.71361C1.33974 2.73928 1.20516 2.82261 1.11549 2.96361C1.02566 3.10461 0.993572 3.26486 1.01924 3.44436L2.61549 12.4596V14.3964C2.38716 14.2847 2.19324 14.1264 2.03374 13.9214C1.87407 13.7162 1.76924 13.4809 1.71924 13.2156L0.024989 3.59636ZM5.99999 6.61561V16.3846C5.99999 16.5641 6.05766 16.7116 6.17299 16.8271C6.28849 16.9424 6.43599 17.0001 6.61549 17.0001H13L17 13.0001V6.61561C17 6.43611 16.9423 6.28861 16.827 6.17311C16.7115 6.05778 16.564 6.00011 16.3845 6.00011H6.61549C6.43599 6.00011 6.28849 6.05778 6.17299 6.17311C6.05766 6.28861 5.99999 6.43611 5.99999 6.61561ZM11 15.0001H12V12.0001H15V11.0001H12V8.00011H11V11.0001H7.99999V12.0001H11V15.0001Z" fill="#757575"/>
</svg>
