<svg width="21" height="21" viewBox="0 0 21 21" fill="none" xmlns="http://www.w3.org/2000/svg">
<path d="M12.5 17.4998H14.5V14.4998H17.5V12.4998H14.5V9.49977H12.5V12.4998H9.50001V14.4998H12.5V17.4998ZM6.00001 18.9998V7.97477C6.00001 7.42477 6.20001 6.9581 6.60001 6.57477C7.00001 6.19144 7.47501 5.99977 8.02501 5.99977H19C19.55 5.99977 20.0208 6.1956 20.4125 6.58727C20.8042 6.97894 21 7.44977 21 7.99977V15.9998L16 20.9998H8.00001C7.45001 20.9998 6.97918 20.8039 6.58751 20.4123C6.19585 20.0206 6.00001 19.5498 6.00001 18.9998ZM1.02501 5.24977C0.925014 4.69977 1.03335 4.20394 1.35001 3.76227C1.66668 3.3206 2.10001 3.04977 2.65001 2.94977L13.5 1.02477C14.05 0.92477 14.5458 1.0331 14.9875 1.34977C15.4292 1.66644 15.7 2.09977 15.8 2.64977L16.05 3.99977H8.00001C6.90001 3.99977 5.95835 4.39144 5.17501 5.17477C4.39168 5.9581 4.00001 6.89977 4.00001 7.99977V17.5498C3.73335 17.3998 3.50418 17.1998 3.31251 16.9498C3.12085 16.6998 3.00001 16.4164 2.95001 16.0998L1.02501 5.24977Z" fill="#193F77"/>
</svg>
