<svg width="21" height="19" viewBox="0 0 21 19" fill="none" xmlns="http://www.w3.org/2000/svg">
<path d="M9.70201 17.9425C9.83267 17.9425 9.96659 17.913 10.1038 17.854C10.2409 17.7951 10.3518 17.7234 10.4365 17.6387L18.2328 9.84246C18.4839 9.59129 18.6778 9.33429 18.8145 9.07146C18.951 8.80862 19.0193 8.52012 19.0193 8.20596C19.0193 7.88796 18.951 7.57929 18.8145 7.27996C18.6778 6.98062 18.4839 6.70721 18.2328 6.45971L14.4828 2.70971C14.2353 2.45854 13.9811 2.27429 13.7203 2.15696C13.4593 2.03962 13.1698 1.98096 12.852 1.98096C12.5378 1.98096 12.2462 2.03962 11.977 2.15696C11.7077 2.27429 11.4538 2.45854 11.2155 2.70971L10.3443 3.58096L12.1943 5.43671C12.3929 5.63154 12.541 5.85337 12.6385 6.10221C12.7358 6.35087 12.7845 6.60337 12.7845 6.85971C12.7845 7.38037 12.6143 7.81087 12.274 8.15121C11.9337 8.49154 11.5033 8.66171 10.9828 8.66171C10.7263 8.66171 10.4759 8.62262 10.2318 8.54446C9.98759 8.46629 9.76801 8.32971 9.57301 8.13471L7.65951 6.22721L3.34226 10.5445C3.24109 10.6458 3.16517 10.7609 3.11451 10.8897C3.06384 11.0185 3.03851 11.1483 3.03851 11.279C3.03851 11.515 3.11417 11.7095 3.26551 11.8627C3.41667 12.0159 3.61026 12.0925 3.84626 12.0925C3.97692 12.0925 4.11084 12.063 4.24801 12.004C4.38517 11.9451 4.49609 11.8734 4.58076 11.7887L7.75001 8.61946L8.45776 9.32721L5.29426 12.4965C5.19292 12.5976 5.11692 12.7126 5.06626 12.8415C5.01576 12.9703 4.99051 13.1001 4.99051 13.231C4.99051 13.4541 5.06934 13.6445 5.22701 13.8022C5.38467 13.9599 5.57501 14.0387 5.79801 14.0387C5.92884 14.0387 6.06284 14.0092 6.20001 13.9502C6.33717 13.8912 6.44809 13.8194 6.53276 13.7347L9.93276 10.3407L10.6405 11.0482L7.24626 14.4482C7.15776 14.5329 7.08501 14.6438 7.02801 14.781C6.97084 14.9181 6.94226 15.0521 6.94226 15.183C6.94226 15.406 7.02109 15.5963 7.17876 15.754C7.33659 15.9118 7.52701 15.9907 7.75001 15.9907C7.88084 15.9907 8.01067 15.9654 8.13951 15.9147C8.26834 15.864 8.38334 15.788 8.48451 15.6867L11.8845 12.2925L12.5923 13.0002L9.19226 16.4002C9.09109 16.5015 9.01517 16.623 8.96451 16.7647C8.91384 16.9064 8.88851 17.0361 8.88851 17.154C8.88851 17.39 8.97151 17.5804 9.13751 17.7252C9.30351 17.87 9.49167 17.9425 9.70201 17.9425ZM9.69626 18.9425C9.18209 18.9425 8.74201 18.7544 8.37601 18.3782C8.01001 18.0019 7.84942 17.5374 7.89426 16.9847C7.32759 16.9912 6.85576 16.822 6.47876 16.4772C6.10192 16.1322 5.92309 15.6508 5.94226 15.033C5.32442 15.0393 4.83759 14.8627 4.48176 14.5032C4.12592 14.1435 3.96409 13.6695 3.99626 13.081C3.43976 13.0875 2.97434 12.931 2.60001 12.6117C2.22567 12.2925 2.03851 11.8483 2.03851 11.279C2.03851 11.0226 2.08817 10.766 2.18751 10.509C2.28684 10.2518 2.43392 10.0258 2.62876 9.83096L7.65951 4.80596L10.2423 7.38871C10.3269 7.47721 10.4314 7.54996 10.5558 7.60696C10.6801 7.66396 10.8205 7.69246 10.977 7.69246C11.191 7.69246 11.3801 7.61779 11.5443 7.46846C11.7084 7.31912 11.7905 7.12454 11.7905 6.88471C11.7905 6.72837 11.7619 6.58804 11.7048 6.46371C11.6478 6.33937 11.575 6.23487 11.4865 6.15021L8.04626 2.70971C7.79876 2.45854 7.54134 2.27429 7.27401 2.15696C7.00667 2.03962 6.71409 1.98096 6.39626 1.98096C6.08209 1.98096 5.79684 2.03962 5.54051 2.15696C5.28401 2.27429 5.03009 2.45854 4.77876 2.70971L1.73451 5.75971C1.52051 5.97387 1.34751 6.22904 1.21551 6.52521C1.08334 6.82137 1.01342 7.12712 1.00576 7.44246C0.998089 7.66812 1.01734 7.88512 1.06351 8.09346C1.10967 8.30179 1.18276 8.49762 1.28276 8.68096L0.525006 9.43871C0.357006 9.17071 0.225589 8.86204 0.130756 8.51271C0.0359224 8.16337 -0.007661 7.80662 5.66902e-06 7.44246C0.00767234 6.98862 0.0986723 6.55371 0.273006 6.13771C0.447339 5.72171 0.696756 5.35154 1.02126 5.02721L4.04626 2.00221C4.39492 1.65721 4.76384 1.40079 5.15301 1.23296C5.54201 1.06496 5.96284 0.980957 6.41551 0.980957C6.86801 0.980957 7.28559 1.06496 7.66826 1.23296C8.05092 1.40079 8.41467 1.65721 8.75951 2.00221L9.63076 2.87321L10.502 2.00221C10.8507 1.65721 11.2163 1.40079 11.599 1.23296C11.9817 1.06496 12.3993 0.980957 12.852 0.980957C13.3045 0.980957 13.7253 1.06496 14.1145 1.23296C14.5035 1.40079 14.8705 1.65721 15.2155 2.00221L18.9405 5.72721C19.2853 6.07204 19.5513 6.45921 19.7385 6.88871C19.9257 7.31821 20.0193 7.75921 20.0193 8.21171C20.0193 8.66437 19.9257 9.08204 19.7385 9.46471C19.5513 9.84737 19.2853 10.2111 18.9405 10.556L11.1443 18.3465C10.9366 18.5541 10.7106 18.7054 10.4663 18.8002C10.2221 18.895 9.96542 18.9425 9.69626 18.9425Z" fill="#757575"/>
</svg>
