<svg width="18" height="18" viewBox="0 0 18 18" fill="none" xmlns="http://www.w3.org/2000/svg">
<path fill-rule="evenodd" clip-rule="evenodd" d="M0.666627 9.00033C0.666627 4.39783 4.39746 0.666992 8.99996 0.666992C13.6025 0.666992 17.3333 4.39783 17.3333 9.00033C17.3333 13.6028 13.6025 17.3337 8.99996 17.3337C7.77215 17.3344 6.55934 17.0637 5.44829 16.5412L1.66746 17.3162C1.53247 17.3438 1.39274 17.3374 1.26078 17.2978C1.12882 17.2581 1.00875 17.1864 0.911325 17.089C0.813896 16.9915 0.742145 16.8715 0.702495 16.7395C0.662846 16.6075 0.656535 16.4678 0.684127 16.3328L1.45913 12.552C0.936539 11.4409 0.665921 10.2281 0.666627 9.00033ZM5.24996 7.75033C4.91844 7.75033 4.6005 7.88202 4.36608 8.11644C4.13166 8.35086 3.99996 8.66881 3.99996 9.00033V9.00866C3.99996 9.34018 4.13166 9.65812 4.36608 9.89254C4.6005 10.127 4.91844 10.2587 5.24996 10.2587H5.25829C5.58981 10.2587 5.90776 10.127 6.14218 9.89254C6.3766 9.65812 6.50829 9.34018 6.50829 9.00866V9.00033C6.50829 8.66881 6.3766 8.35086 6.14218 8.11644C5.90776 7.88202 5.58981 7.75033 5.25829 7.75033H5.24996ZM8.99996 7.75033C8.66844 7.75033 8.3505 7.88202 8.11608 8.11644C7.88166 8.35086 7.74996 8.66881 7.74996 9.00033V9.00866C7.74996 9.34018 7.88166 9.65812 8.11608 9.89254C8.3505 10.127 8.66844 10.2587 8.99996 10.2587H9.00829C9.33982 10.2587 9.65776 10.127 9.89218 9.89254C10.1266 9.65812 10.2583 9.34018 10.2583 9.00866V9.00033C10.2583 8.66881 10.1266 8.35086 9.89218 8.11644C9.65776 7.88202 9.33982 7.75033 9.00829 7.75033H8.99996ZM11.5 9.00033C11.5 8.66881 11.6317 8.35086 11.8661 8.11644C12.1005 7.88202 12.4184 7.75033 12.75 7.75033H12.7583C13.0898 7.75033 13.4078 7.88202 13.6422 8.11644C13.8766 8.35086 14.0083 8.66881 14.0083 9.00033V9.00866C14.0083 9.34018 13.8766 9.65812 13.6422 9.89254C13.4078 10.127 13.0898 10.2587 12.7583 10.2587H12.75C12.4184 10.2587 12.1005 10.127 11.8661 9.89254C11.6317 9.65812 11.5 9.34018 11.5 9.00866V9.00033Z" fill="#193F77"/>
</svg>
